<svg width="35" height="35" viewBox="0 0 35 35" fill="none" xmlns="http://www.w3.org/2000/svg">
<path d="M31.5479 9.69338C31.0897 8.63257 30.4291 7.67127 29.603 6.8633C28.7763 6.05292 27.8016 5.40893 26.7319 4.96633C25.6227 4.50557 24.433 4.26972 23.2319 4.27248C21.5469 4.27248 19.9028 4.73391 18.4741 5.60549C18.1323 5.81399 17.8076 6.04299 17.5 6.2925C17.1924 6.04299 16.8677 5.81399 16.5259 5.60549C15.0972 4.73391 13.4531 4.27248 11.7681 4.27248C10.5547 4.27248 9.37891 4.50491 8.26807 4.96633C7.19482 5.41067 6.22754 6.04983 5.39697 6.8633C4.56981 7.67036 3.90906 8.63188 3.45215 9.69338C2.97705 10.7974 2.73438 11.9697 2.73438 13.1763C2.73438 14.3145 2.9668 15.5005 3.42822 16.707C3.81445 17.7153 4.36816 18.7612 5.07568 19.8174C6.19678 21.4888 7.73828 23.2319 9.65234 24.999C12.8242 27.9282 15.9653 29.9517 16.0986 30.0337L16.9087 30.5532C17.2676 30.7822 17.729 30.7822 18.0879 30.5532L18.898 30.0337C19.0313 29.9482 22.1689 27.9282 25.3442 24.999C27.2583 23.2319 28.7998 21.4888 29.9209 19.8174C30.6284 18.7612 31.1855 17.7153 31.5684 16.707C32.0298 15.5005 32.2622 14.3145 32.2622 13.1763C32.2656 11.9697 32.023 10.7974 31.5479 9.69338Z" fill="#96A7AF"/>
</svg>
