<svg width="35" height="35" viewBox="0 0 35 35" fill="none" xmlns="http://www.w3.org/2000/svg">
<path d="M28.25 23.252L21.377 22.0039C20.75 20.75 20.75 20.2051 20.75 19.502C21.377 18.875 22.625 18.2539 22.625 17.627C23.252 15.752 23.252 14.5039 23.252 14.5039C23.5742 14.0352 24.5 13.2559 24.5 12.002C24.5 10.748 23.252 9.5 23.252 8.87891C23.252 3.875 20.7031 2 17 2C13.4551 2 10.748 3.875 10.748 8.87305C10.748 9.5 9.5 10.748 9.5 11.9961C9.5 13.2441 10.3906 14.0703 10.748 14.498C10.748 14.498 10.748 15.7461 11.375 17.6211C11.375 18.248 12.623 18.8691 13.25 19.4961C13.25 20.123 13.25 20.7441 12.623 21.998L5.75 23.252C3.24805 23.873 2 28.25 2 32H32C32 28.25 30.752 23.873 28.25 23.252Z" fill="#96A7AF"/>
</svg>
